<svg width="33.478" height="44.758" version="1.1" viewBox="0 0 33.478 44.758" xmlns="http://www.w3.org/2000/svg" xmlns:cc="http://creativecommons.org/ns#" xmlns:dc="http://purl.org/dc/elements/1.1/" xmlns:rdf="http://www.w3.org/1999/02/22-rdf-syntax-ns#"><defs><linearGradient id="m" x1="58.363" x2="58.363" y1="28.412" y2="69.063" data-name="Unbenannter Verlauf 25" gradientUnits="userSpaceOnUse"><stop stop-color="#c92727" offset="0"/><stop stop-color="#8a1616" offset="1"/></linearGradient><linearGradient id="n" x1="58.363" x2="58.363" y1="24.442" y2="27.938" data-name="Unbenannter Verlauf 80" gradientUnits="userSpaceOnUse"><stop stop-color="#df3535" offset="0"/><stop stop-color="#e03636" offset=".5"/><stop stop-color="#ea4040" offset="1"/></linearGradient><linearGradient id="o" x1="41.661" x2="61.05" y1="48.454" y2="48.454" data-name="Unbenannter Verlauf 36" gradientUnits="userSpaceOnUse"><stop stop-color="#991919" offset="0"/><stop stop-color="#971919" offset=".509"/><stop stop-color="#901717" offset=".692"/><stop stop-color="#851414" offset=".823"/><stop stop-color="#741010" offset=".928"/><stop stop-color="#630c0c" offset="1"/></linearGradient><linearGradient id="p" x1="65.395" x2="65.395" y1="55.702" y2="59.093" data-name="Unbenannter Verlauf 76" gradientUnits="userSpaceOnUse"><stop stop-color="#ab1617" offset="0"/><stop stop-color="#ae191a" offset=".5"/><stop stop-color="#c23435" offset="1"/></linearGradient><linearGradient id="q" x1="57.918" x2="65.981" y1="54.592" y2="58.352" data-name="Unbenannter Verlauf 73" gradientUnits="userSpaceOnUse"><stop offset=".062"/><stop stop-color="#262626" offset=".104"/><stop stop-color="#676767" offset=".181"/><stop stop-color="#9d9d9d" offset=".254"/><stop stop-color="#c8c8c8" offset=".322"/><stop stop-color="#e6e6e6" offset=".383"/><stop stop-color="#f8f8f8" offset=".435"/><stop stop-color="#fff" offset=".471"/></linearGradient><linearGradient id="r" x1="41.806" x2="75.065" y1="27.904" y2="27.904" data-name="Unbenannter Verlauf 74" gradientTransform="translate(-41.587 -24.346)" gradientUnits="userSpaceOnUse"><stop stop-color="#ff6364" offset=".344"/><stop stop-color="#ff6566" offset=".56"/><stop stop-color="#ff6c6d" offset=".637"/><stop stop-color="#ff7778" offset=".693"/><stop stop-color="#ff8889" offset=".738"/><stop stop-color="#ff9e9f" offset=".776"/><stop stop-color="#ffb9b9" offset=".81"/><stop stop-color="#ffd4d4" offset=".836"/><stop stop-color="#ffd4d4" offset=".964"/><stop stop-color="#ff6364" stop-opacity=".5" offset="1"/></linearGradient><radialGradient id="s" cx="1613.7" cy="-3383" r="1.94" data-name="Unbenannter Verlauf 86" gradientTransform="matrix(2.521 0 0 .337 -4038.9 1143.4)" gradientUnits="userSpaceOnUse"><stop stop-color="#fff" offset="0"/><stop stop-color="#fff" stop-opacity="0" offset=".977"/></radialGradient></defs><title>Zeichenfläche 1</title><polygon transform="translate(-41.587 -24.346)" points="75.065 37.816 55.725 59.129 75.065 59.129 75.065 69.004 41.661 69.004 41.661 59.092 61.05 37.816 41.661 37.816 41.661 27.94 75.065 27.94" fill="url(#m)" style="isolation:isolate"/><polygon transform="translate(-41.587 -24.346)" points="71.978 24.346 75.065 27.94 41.661 27.94 44.784 24.346" fill="url(#n)" style="isolation:isolate"/><polygon transform="translate(-41.587 -24.346)" points="43.077 55.389 41.661 59.092 61.05 37.816 58.98 37.816" fill="url(#o)" style="isolation:isolate"/><polygon transform="translate(-41.587 -24.346)" points="58.92 55.607 55.725 59.129 75.065 59.129 72.015 55.607" fill="url(#p)" style="isolation:isolate"/><polygon transform="translate(-41.587 -24.346)" points="58.92 55.607 55.725 59.129 75.065 59.129 72.015 55.607" fill="url(#q)" opacity=".5" style="isolation:isolate;mix-blend-mode:multiply"/><rect x=".21891" y="3.485" width="33.259" height=".145" fill="url(#r)" style="isolation:isolate"/><ellipse cx="28.588" cy="3.558" rx="4.89" ry=".654" fill="url(#s)" opacity=".4" style="isolation:isolate"/><g fill="none" stroke-miterlimit="10" stroke-width=".2"><line x1="19.463" x2=".073914" y1="13.47" y2="34.747" stroke="#cc4040" style="isolation:isolate"/><line x1="33.478" x2="14.138" y1="34.783" y2="34.783" stroke="#cf5454" style="isolation:isolate"/><line x1=".073914" x2="33.478" y1="44.658" y2="44.658" stroke="#741212" style="isolation:isolate"/></g><script/><metadata><rdf:RDF><cc:Work rdf:about=""><dc:title>Zeichenfläche 1</dc:title></cc:Work></rdf:RDF></metadata></svg>
